<?xml version="1.0" encoding="UTF-8"?>
<svg width="1440px" height="1024px" viewBox="0 0 1440 1024" version="1.1" xmlns="http://www.w3.org/2000/svg" xmlns:xlink="http://www.w3.org/1999/xlink">
    <title>Illustration</title>
    <defs>
        <rect id="path-1" x="0" y="0" width="1440" height="1024"></rect>
        <linearGradient x1="19.7956094%" y1="65.1389619%" x2="110.249534%" y2="-14.5195244%" id="linearGradient-3">
            <stop stop-color="#175B97" offset="0%"></stop>
            <stop stop-color="#437DC2" offset="100%"></stop>
        </linearGradient>
        <linearGradient x1="50%" y1="0%" x2="50%" y2="100%" id="linearGradient-4">
            <stop stop-color="#F48E73" offset="0%"></stop>
            <stop stop-color="#E6553F" offset="100%"></stop>
        </linearGradient>
        <linearGradient x1="39.5075704%" y1="103.663023%" x2="158.1782%" y2="-249.337801%" id="linearGradient-5">
            <stop stop-color="#175B97" offset="0%"></stop>
            <stop stop-color="#DBF6FB" offset="100%"></stop>
        </linearGradient>
        <linearGradient x1="50%" y1="0%" x2="50%" y2="100%" id="linearGradient-6">
            <stop stop-color="#F48E73" offset="0%"></stop>
            <stop stop-color="#E6553F" offset="100%"></stop>
        </linearGradient>
        <linearGradient x1="50%" y1="0%" x2="50%" y2="100%" id="linearGradient-7">
            <stop stop-color="#F48E73" offset="0%"></stop>
            <stop stop-color="#E6553F" offset="100%"></stop>
        </linearGradient>
        <linearGradient x1="50%" y1="0%" x2="50%" y2="100%" id="linearGradient-8">
            <stop stop-color="#F48E73" offset="0%"></stop>
            <stop stop-color="#E6553F" offset="100%"></stop>
        </linearGradient>
        <path d="M12.5851825,7.68259414 C19.4136111,10.1439994 25.3785174,9.68479967 30.4799014,6.30499484 L30.4799022,6.30499591 C33.5738329,4.25518316 37.7436609,5.10160802 39.7934736,8.19553875 C39.9568981,8.44220723 40.1038524,8.69940021 40.2333769,8.96543841 C44.578039,17.8892029 49.0705551,22.3510852 53.7109252,22.3510852 C58.9404408,22.3510852 70.1389436,20.8004809 87.3064337,17.6992724 C91.7604323,16.8947125 95.1975125,13.3264064 95.8347292,8.84540478 L96.7188849,2.62789224 C96.821264,1.90794679 97.4443444,1.37731103 98.1714062,1.39087713 L198.540982,3.26365379 L198.540982,3.26365379 C195.637305,10.6696314 188.754434,15.4787959 177.89237,17.6911472 C167.030306,19.9034986 129.572849,23.4409816 65.52,28.3035963 C50.5390784,30.1214469 34.6559144,28.1372765 17.8705082,22.3510852 C-7.30760128,13.6717981 -2.06258933,2.40259414 12.5851825,7.68259414 Z" id="path-9"></path>
        <path d="M5.15932533,21.7969898 C14.850524,12.2617728 35.4552106,-2.68072491 52.6863822,1.70526973 C69.9175538,6.09126437 75.2754007,43.4372706 82.1253038,63.8151494 C88.9752069,84.1930282 93.9969408,118.256177 89.1072443,126.820589 C84.2175478,135.385 79.9875146,127.715553 61.4297394,127.715553 C42.8719643,127.715553 8.44042075,117.272721 12.2267725,110.114935 C16.0131243,102.957149 16.9039867,81.6010742 10.7664165,65.8757536 C4.62884624,50.150433 -4.81987335,31.6155714 5.15932533,21.7969898 Z" id="path-11"></path>
        <linearGradient x1="21.0711844%" y1="88.563427%" x2="80.1369032%" y2="14.0689015%" id="linearGradient-13">
            <stop stop-color="#081E41" offset="0%"></stop>
            <stop stop-color="#3C4D69" offset="100%"></stop>
        </linearGradient>
    </defs>
    <g id="Page-1" stroke="none" stroke-width="1" fill="none" fill-rule="evenodd">
        <g id="Illustration">
            <mask id="mask-2" fill="white">
                <use xlink:href="#path-1"></use>
            </mask>
            <use id="Rectangle" fill="#FFFFFF" xlink:href="#path-1"></use>
            <g id="Group-21" mask="url(#mask-2)">
                <g transform="translate(-180.000000, -355.000000)">
                    <rect id="Rectangle-6" stroke="none" fill="url(#linearGradient-3)" fill-rule="evenodd" x="179" y="0" width="1442" height="1164"></rect>
                    <path d="M913.534831,1147.36678 C960.411968,1005.48153 1004.27016,929.511445 1045.10941,919.456517 C1106.36828,904.374124 1104.82919,941.759098 1139.72121,931.190288 C1174.61322,920.621478 1174.20673,647.288051 1269.79783,612.721899 C1365.38894,578.155747 1375.50333,607.530079 1424.63338,601.218546 C1473.76344,594.907012 1409.62763,418.041094 1542.15126,395.855892 C1630.50034,381.065757 1696.32592,515.369769 1739.62801,798.767929 L1216.50079,1017.61477 C1097.53215,1063.02472 996.543498,1106.27539 913.534831,1147.36678 Z" id="Path-43" stroke="none" fill="#D5F1FB" fill-rule="evenodd" opacity="0.300000012" transform="translate(1326.581422, 771.061141) rotate(19.000000) translate(-1326.581422, -771.061141) "></path>
                    <path d="M88,1152 C132.378423,1044.56897 172.881294,986.832456 209.508613,978.790448 C264.449591,966.727436 263.069232,996.628221 294.362685,988.175207 C325.656139,979.722193 310.050021,754.126816 385.484163,705.427434 C460.918305,656.728051 505.82758,729.309328 549.890637,724.261316 C593.953695,719.213304 627.907969,488.514585 746.763856,470.770692 C826.001113,458.941431 890.746495,583.286558 941,843.806072 L363.223659,1057.29816 C256.524771,1093.61738 164.783551,1125.18466 88,1152 Z" id="Path-43" stroke="none" fill="#D5F1FB" fill-rule="evenodd" opacity="0.200000003" transform="translate(514.500000, 811.000000) scale(-1, 1) rotate(19.000000) translate(-514.500000, -811.000000) "></path>
                    <g id="Group-13" stroke="none" stroke-width="1" fill="none" fill-rule="evenodd" transform="translate(1030.000000, 731.000000)">
                        <polygon id="Path-2" fill="#CDF1FB" opacity="0.800000012" points="1.41970828e-13 246.356798 255.5 87.8708262 321.5 2.84217094e-14 471.430137 45.695131 511.379768 57.8708262 511.379768 243.870826"></polygon>
                        <polygon id="Path-2" fill="#FFFFFF" points="25.037841 230.014336 321.5 124.870826 321.5 -4.26325641e-14 511.379768 57.8708262 511.379768 243.870826"></polygon>
                    </g>
                    <g id="Group-13" stroke="none" stroke-width="1" fill="none" fill-rule="evenodd" transform="translate(513.000000, 826.500000) scale(-1, 1) translate(-513.000000, -826.500000) translate(239.000000, 631.000000)" opacity="0.800000012">
                        <polygon id="Path-2" fill="#CDF1FB" points="5.68434189e-14 388.294052 291.5 87.8708262 357.5 0 543.634034 160 547.379768 243.870826"></polygon>
                        <path d="M6.5,361.356718 L374.483912,77.7661598 L357.5,0 L547.379768,162.661608 L547.379768,243.870826 C362.863242,312.679146 223.344879,357.348795 128.824678,377.879772 C34.3044765,398.410749 -6.47041604,392.903064 6.5,361.356718 Z" id="Path-2" fill="#95CBE8"></path>
                    </g>
                    <path d="M168.994625,676.875733 L250.991454,784.307331 L403.040184,815 L441.484088,893.737656 C489.597857,890.073323 533.320648,898.734475 572.65246,919.721113 C589.971389,928.962133 612.097991,950.615014 639.032265,984.679754 L960.958199,984.679754 L1204.45458,919.721113 L1328.44979,901.732566 L1497,901.732566 L1512.44267,784.307331 C1601.77255,693.032113 1652.43726,630.40532 1664.4368,596.426955 C1673.42199,570.984111 1669.13793,687.213327 1651.58462,945.114601 C1647.65878,1002.7948 1640.27662,1105.25967 1629.43815,1252.50923 L312.989057,1267 L30,1267 L168.994625,676.875733 Z" id="Path-11" stroke="none" fill="#FFFFFF" fill-rule="evenodd"></path>
                    <circle id="Oval-2" stroke="#FFFFFF" stroke-width="80" fill="none" opacity="0.06" cx="1586" cy="202" r="155"></circle>
                    <path d="M191,200 C124.72583,200 71,253.72583 71,320 C71,386.27417 124.72583,440 191,440 L191,440 C257.27417,440 311,386.27417 311,320" id="Oval-2-Copy" stroke="#FFFFFF" stroke-width="80" fill="none" opacity="0.100000001" stroke-linecap="round"></path>
                    <g id="Group-13-Copy" stroke="none" stroke-width="1" fill="none" fill-rule="evenodd" transform="translate(717.000000, 744.000000)"></g>
                    <g id="Group-13-Copy-2" stroke="none" stroke-width="1" fill="none" fill-rule="evenodd" transform="translate(845.000000, 744.000000)"></g>
                    <g id="Group-13-Copy-8" stroke="none" stroke-width="1" fill="none" fill-rule="evenodd" transform="translate(717.000000, 774.000000)"></g>
                    <g id="Group-13-Copy-7" stroke="none" stroke-width="1" fill="none" fill-rule="evenodd" transform="translate(845.000000, 774.000000)"></g>
                    <circle id="Oval" stroke="none" fill="#FFFFFF" fill-rule="evenodd" opacity="0.100000001" cx="967" cy="891" r="3"></circle>
                    <circle id="Oval" stroke="none" fill="#FFFFFF" fill-rule="evenodd" opacity="0.100000001" cx="944" cy="928" r="8"></circle>
                    <line x1="464" y1="985" x2="1323" y2="985" id="Path-44" stroke="#BDD0E5" stroke-width="8" fill="none" opacity="0.300000012" stroke-linecap="round"></line>
                    <circle id="Oval" stroke="none" fill="#FFFFFF" fill-rule="evenodd" opacity="0.100000001" cx="885.5" cy="952.5" r="4.5"></circle>
                    <g id="Group-24" stroke="none" stroke-width="1" fill="none" fill-rule="evenodd" transform="translate(536.000000, 901.000000)">
                        <g id="Group-23">
                            <path d="M57.0126172,192.174296 L664.8485,201 L664.8485,201 C582.822526,202.60385 471.197132,204.347363 329.972319,206.230541 C275.17462,206.961247 173.262502,208.130746 24.2359653,209.73904 C21.7333403,209.766072 19.682667,207.759188 19.6556587,205.256562 C19.6354683,203.385693 20.7671161,201.694749 22.5043222,201 L33.8617653,196.457895 C41.2200932,193.515129 49.0885007,192.059239 57.0126172,192.174296 Z" id="Path" fill="#D5F1FB"></path>
                            <g id="Group-3" transform="translate(51.600000, 0.000000)">
                                <g id="Group-14" transform="translate(155.985600, 28.953600)">
                                    <path d="M80.1144,0 C100.706503,0 116.506745,7.36552634 127.5156,22.0968 C138.524455,36.8280737 144.0288,58.0534614 144.0288,85.7736 C144.0288,113.652139 138.564055,134.956726 127.6344,149.688 C116.704745,164.419274 100.864904,171.7848 80.1144,171.7848 C59.3638962,171.7848 43.5240546,164.419274 32.5944,149.688 C21.6647454,134.956726 16.2,113.652139 16.2,85.7736 C16.2,58.0534614 21.6647454,36.8280737 32.5944,22.0968 C43.5240546,7.36552634 59.3638962,0 80.1144,0 Z M80.1144,33.0264 C72.511162,33.0264 67.0464166,37.1051592 63.72,45.2628 C60.3935834,53.4204408 58.7304,66.9239058 58.7304,85.7736 L58.7304,85.7736 L58.7309529,86.3670895 C58.7655987,104.907823 60.4285983,118.253062 63.72,126.4032 C67.0464166,134.640041 72.511162,138.7584 80.1144,138.7584 C87.717638,138.7584 93.1823834,134.640041 96.5088,126.4032 C99.8352166,118.166359 101.4984,104.623294 101.4984,85.7736 L101.4984,85.7736 L101.497835,85.1788442 C101.462825,66.7964329 99.7998292,53.5308152 96.5088,45.3816 C93.1823834,37.1447588 87.717638,33.0264 80.1144,33.0264 Z" id="0" fill="#FFBC4C" fill-rule="nonzero"></path>
                                    <path d="M63.9144,0 C84.506503,0 100.306745,7.36552634 111.3156,22.0968 C122.324455,36.8280737 127.8288,58.0534614 127.8288,85.7736 C127.8288,113.652139 122.364055,134.956726 111.4344,149.688 C100.504745,164.419274 84.6649038,171.7848 63.9144,171.7848 C43.1638962,171.7848 27.3240546,164.419274 16.3944,149.688 C5.46474535,134.956726 0,113.652139 0,85.7736 C0,58.0534614 5.46474535,36.8280737 16.3944,22.0968 C27.3240546,7.36552634 43.1638962,0 63.9144,0 Z M63.9144,33.0264 C56.311162,33.0264 50.8464166,37.1051592 47.52,45.2628 C44.1935834,53.4204408 42.5304,66.9239058 42.5304,85.7736 L42.5304,85.7736 L42.5309529,86.3670895 C42.5655987,104.907823 44.2285983,118.253062 47.52,126.4032 C50.8464166,134.640041 56.311162,138.7584 63.9144,138.7584 C71.517638,138.7584 76.9823834,134.640041 80.3088,126.4032 C83.6352166,118.166359 85.2984,104.623294 85.2984,85.7736 L85.2984,85.7736 L85.2978353,85.1788442 C85.2635778,67.1917536 83.670603,54.1037458 80.5188657,45.9144545 L80.5188657,45.9144545 L80.3088,45.3816 C76.9823834,37.1447588 71.517638,33.0264 63.9144,33.0264 Z" id="0" fill="url(#linearGradient-4)"></path>
                                    <path d="M6.32785994,105.435483 C14.9485609,104.493865 20.7457993,107.84786 23.7195753,115.497469 C26.6933512,123.147078 22.2172711,131.055532 10.2913351,139.222831 C6.2093736,131.840247 4.16839287,124.981436 4.16839287,118.6464 C4.16839287,112.311364 4.88821523,107.907724 6.32785994,105.435483 Z" id="Path-13" fill="url(#linearGradient-5)" opacity="0.300000012"></path>
                                </g>
                                <g id="Group-12" transform="translate(373.426826, 108.983871) rotate(15.000000) translate(-373.426826, -108.983871) translate(297.426826, 16.983871)">
                                    <path d="M108.4776,10.4664 C114.49683,10.4664 119.644779,12.367181 123.9216,16.1688 C128.198421,19.970419 130.3368,25.2767659 130.3368,32.088 L130.3368,117.8616 L135.564,117.8616 C149.344869,117.8616 156.82035,130.925952 146.473139,135.405895 C141.816894,137.421869 141.932795,140.806706 142.213018,143.920196 L142.250951,144.333576 C142.587475,147.968351 142.867861,151.1256 135.564,151.1256 L130.3368,151.1256 L130.3368,159.204 C130.3368,166.332036 128.35682,171.717582 124.3968,175.3608 C120.43678,179.004018 115.288832,180.8256 108.9528,180.8256 C102.616768,180.8256 97.5084194,179.004018 93.6276,175.3608 C89.7467806,171.717582 87.8064,166.332036 87.8064,159.204 L87.8064,151.1256 L34.8216,151.1256 C29.1191715,151.1256 24.6048166,149.383217 21.2784,145.8984 C17.9519834,142.413583 16.2888,138.057626 16.2888,132.8304 C16.2888,127.409573 17.9546038,122.291699 21.2862602,117.476631 L89.4696,20.208 C91.6872111,17.0399842 94.498783,14.6244083 97.9044,12.9612 C101.310017,11.2979917 104.834382,10.4664 108.4776,10.4664 Z M87.8064,76.7568 L59.2944,117.8616 L87.8064,117.8616 L87.8064,76.7568 Z" id="4" fill="#F9A750" fill-rule="nonzero"></path>
                                    <path d="M92.2776,10.4664 C98.2968301,10.4664 103.444779,12.367181 107.7216,16.1688 C111.998421,19.970419 114.1368,25.2767659 114.1368,32.088 L114.1368,117.8616 L119.364,117.8616 C133.144869,117.8616 143.393372,125.303173 131.191014,131.24449 C118.988657,137.185807 133.144869,151.1256 119.364,151.1256 L114.1368,151.1256 L114.1368,159.204 C114.1368,166.332036 112.15682,171.717582 108.1968,175.3608 C104.23678,179.004018 99.0888317,180.8256 92.7528,180.8256 C86.4167683,180.8256 81.3084194,179.004018 77.4276,175.3608 C73.5467806,171.717582 71.6064,166.332036 71.6064,159.204 L71.6064,151.1256 L18.6216,151.1256 C12.9191715,151.1256 8.40481663,149.383217 5.0784,145.8984 C1.75198337,142.413583 0.0888,138.057626 0.0888,132.8304 C0.0888,127.409573 1.75460379,122.291699 5.08626022,117.476631 L73.2696,20.208 C75.4872111,17.0399842 78.298783,14.6244083 81.7044,12.9612 C85.110017,11.2979917 88.6343818,10.4664 92.2776,10.4664 Z M71.6064,76.7568 L43.0944,117.8616 L71.6064,117.8616 L71.6064,76.7568 Z" id="4" fill="url(#linearGradient-6)"></path>
                                    <polyline id="Path-5" stroke="#F9A750" stroke-width="0.9" points="114.861825 117.217204 92.2362748 134.800813 89.0966785 144.390112 82.7478524 144.754719"></polyline>
                                    <line x1="98.9309463" y1="130.18219" x2="84.6934494" y2="117.749802" id="Path-6" stroke="#F9A750" stroke-width="0.9"></line>
                                    <path d="M44.8332611,51.6891149 C43.6022865,56.7606042 47.0440879,61.8692745 51.364208,60.7117018 C55.6843281,59.5541291 73.0472382,48.6176978 74.970426,55.7951327 C76.8936139,62.9725676 81.0313296,66.5916303 85.1537668,65.4870266 C89.2762039,64.3824229 94.5458736,57.3214079 99.1016616,61.7496995 C103.65745,66.1779911 105.108883,78.052218 111.475793,74.5894227 C117.842704,71.1266275 121.471267,66.8432387 125.435789,69.1337731 C128.078803,70.660796 131.761023,68.7742453 136.482448,63.4741209 C136.366556,44.5383821 136.401688,32.9861738 136.587843,28.8174959 C136.867075,22.5644791 131.298734,9.07827452 121.988923,7.0990215 C112.679112,5.11976848 107.76691,9.24238303 106.412882,7.01172006 C105.058855,4.7810571 86.1402095,-3.90822602 78.4683819,2.79050305 C70.7965543,9.48923212 65.709657,31.8346696 60.0830197,33.7509591 C54.4563823,35.6672486 46.0642356,46.6176256 44.8332611,51.6891149 Z" id="Path-10" fill="#FFFFFF"></path>
                                    <path d="M126.343612,84.2168535 C103.784774,99.8891082 93.4614567,109.103748 95.3736616,111.860772 C98.2419689,115.996308 106.228745,124.553831 104.422802,131.723292 C102.616859,138.892753 92.8056542,152.677698 97.2900959,157.704384 C100.279724,161.055508 100.514635,168.42474 97.994829,179.812081 L114.646499,183.787981 L125.786602,173.921827 C128.886315,170.949874 130.472352,166.382661 130.544712,160.220189 C130.617071,154.057717 129.216705,128.723272 126.343612,84.2168535 Z" id="Path-15" fill="#081E41" opacity="0.200000003"></path>
                                </g>
                                <g id="Group-15" transform="translate(88.823870, 115.139790) rotate(-7.000000) translate(-88.823870, -115.139790) translate(10.323870, 29.639790)">
                                    <path d="M108.3888,0 C114.40803,0 119.555979,1.90078099 123.8328,5.7024 C128.109621,9.50401901 130.248,14.8103659 130.248,21.6216 L130.248,107.3952 L135.4752,107.3952 C149.256069,107.3952 156.1464,112.859945 156.1464,123.7896 C156.1464,135.036056 149.256069,140.6592 135.4752,140.6592 L130.248,140.6592 L130.248,148.7376 C130.248,155.865636 128.26802,161.251182 124.308,164.8944 C120.34798,168.537618 115.200032,170.3592 108.864,170.3592 C102.527968,170.3592 97.4196194,168.537618 93.5388,164.8944 C89.6579806,161.251182 87.7176,155.865636 87.7176,148.7376 L87.7176,140.6592 L34.7328,140.6592 C29.0303715,140.6592 24.5160166,138.916817 21.1896,135.432 C17.8631834,131.947183 16.2,127.591226 16.2,122.364 C16.2,116.943173 17.8658038,111.825299 21.1974602,107.010231 L89.3808,9.7416 C91.5984111,6.57358416 94.409983,4.15800832 97.8156,2.4948 C101.221217,0.831591684 104.745582,0 108.3888,0 Z M87.7176,66.2904 L59.2056,107.3952 L87.7176,107.3952 L87.7176,66.2904 Z" id="4" fill="#FFBC4C" fill-rule="nonzero"></path>
                                    <path d="M92.1888,0 C98.2080301,0 103.355979,1.90078099 107.6328,5.7024 C111.909621,9.50401901 114.048,14.8103659 114.048,21.6216 L114.048,107.3952 L119.2752,107.3952 C133.056069,107.3952 139.9464,112.859945 139.9464,123.7896 C139.9464,135.036056 133.056069,140.6592 119.2752,140.6592 L114.048,140.6592 L114.048,148.7376 C114.048,155.865636 112.06802,161.251182 108.108,164.8944 C104.14798,168.537618 99.0000317,170.3592 92.664,170.3592 C86.3279683,170.3592 81.2196194,168.537618 77.3388,164.8944 C73.4579806,161.251182 71.5176,155.865636 71.5176,148.7376 L71.5176,140.6592 L18.5328,140.6592 C12.8303715,140.6592 8.31601663,138.916817 4.9896,135.432 C1.66318337,131.947183 0,127.591226 0,122.364 C0,116.943173 1.66580379,111.825299 4.99746022,107.010231 L73.1808,9.7416 C75.3984111,6.57358416 78.209983,4.15800832 81.6156,2.4948 C85.021217,0.831591684 88.5455818,0 92.1888,0 Z M71.5176,66.2904 L43.0056,107.3952 L71.5176,107.3952 L71.5176,66.2904 Z" id="4" fill="url(#linearGradient-7)"></path>
                                </g>
                                <path d="M43.45033,64.2768073 C42.2193555,69.3482966 45.6611568,74.4569668 49.9812769,73.2993941 C54.3013971,72.1418214 67.1798565,55.5406128 69.1030444,62.7180477 C71.0262323,69.8954826 75.1639479,73.5145453 79.2863851,72.4099416 C83.4088222,71.3053379 88.6784919,64.2443229 93.2342799,68.6726145 C97.7900679,73.1009061 103.725952,90.6399103 110.092862,87.1771151 C116.459773,83.7143199 120.088336,79.430931 124.052858,81.7214654 C128.01738,84.0119998 126.051961,91.9396568 132.416616,95.3942673 C138.78127,98.8488779 140.473424,91.9571373 140.675093,88.1084748 C141.941995,63.9308173 130.078214,53.8462192 135.204912,41.4051882 C140.33161,28.9641573 129.915803,21.6659669 120.605992,19.6867139 C111.296181,17.7074608 81.1117568,17.1724358 73.4399292,23.8711648 C65.7681016,30.5698939 64.3267259,44.422362 58.7000886,46.3386515 C53.0734513,48.254941 44.6813045,59.205318 43.45033,64.2768073 Z" id="Path-10" fill="#FFFFFF" transform="translate(91.984067, 57.353994) rotate(-10.000000) translate(-91.984067, -57.353994) "></path>
                                <path d="M160.153993,65.9669475 C159.261417,69.7778228 161.718148,70.7305416 167.524185,68.825104 C176.233241,65.9669475 188.449015,54.5707502 198.516,54.5707502 C208.582985,54.5707502 211.5144,60.137238 219.9,57.3539941 C228.2856,54.5707502 236.225287,51.7875063 239.792321,54.5707502 C243.359355,57.3539941 249.354297,68.5681357 259.836829,67.2675416 C270.319361,65.9669475 270.062558,59.9562534 277.11248,59.9562534 C284.162402,59.9562534 287.291497,73.180765 292.760479,73.180765 C298.229461,73.180765 302.937743,65.9415004 294.91504,54.5707502 C286.892337,43.2 273.110732,20.006133 241.284,24.4798665 C209.457268,28.9536 211.098649,24.4798665 198.516,24.4798665 C192.026781,24.4798665 179.278393,31.9958057 167.524185,48.5475886 C165.230764,51.7770867 162.774034,57.5835397 160.153993,65.9669475 Z" id="Path-12" fill="#FFFFFF"></path>
                            </g>
                        </g>
                        <g id="Group-16" transform="translate(106.000000, 48.000000)">
                            <path d="M5.44961231,148.408286 C34.9393914,139.502404 218.936724,142.032664 557.441611,155.999064 C600.090765,161.099161 584.930348,166.308217 511.960358,171.626232 C402.505374,179.603255 103.358047,171.745419 152.819554,160.95493 C202.281061,150.16444 -38.7850563,161.76711 5.44961231,148.408286 Z" id="Path" fill="#ACE1FE" opacity="0.400000006" transform="translate(290.520000, 159.046702) scale(-1, 1) translate(-290.520000, -159.046702) "></path>
                            <path d="M313.091849,148.408286 C328.878199,139.502404 427.374913,142.032664 608.58199,155.999064 C631.412764,161.099161 623.29715,166.308217 584.235148,171.626232 C525.642146,179.603255 365.503799,171.745419 391.981335,160.95493 C418.45887,150.16444 289.412324,161.76711 313.091849,148.408286 Z" id="Path" fill="#ACE1FE" transform="translate(465.694585, 159.046702) scale(-1, 1) translate(-465.694585, -159.046702) "></path>
                            <g id="Group-11" transform="translate(420.079827, 86.618021) rotate(-10.000000) translate(-420.079827, -86.618021) translate(300.079827, 20.118021)">
                                <g id="Group-10" opacity="0.800000012" transform="translate(89.527772, 96.118211)">
                                    <rect id="Rectangle" fill="#081E41" x="0" y="0" width="108" height="26.88" rx="13.44"></rect>
                                    <rect id="Rectangle" fill="#3C4D69" x="12" y="0" width="108" height="26.88" rx="13.44"></rect>
                                    <rect id="Rectangle" fill="#081E41" x="15.36" y="2.88" width="101.28" height="21.12" rx="10.56"></rect>
                                    <rect id="Rectangle" fill="#3C4D69" x="40.8" y="10.08" width="52.32" height="6.72" rx="3.36"></rect>
                                    <g id="Group-9" transform="translate(97.262510, 4.428718)">
                                        <circle id="Oval" fill="#0F58BA" cx="8.57748984" cy="8.77128184" r="7.92"></circle>
                                        <g id="Group-7">
                                            <path d="M8.31293713,12.2951188 L7.38,12.9780762 C7.01472413,13.2454767 6.50183859,13.166133 6.23443809,12.8008572 C6.11358934,12.6357747 6.05884504,12.4314662 6.08096189,12.2280762 L6.20595177,11.0786503 C6.25118707,10.6626596 6.02176507,10.265289 5.63888889,10.0964686 L4.58096189,9.63 C4.16674833,9.44736206 3.9790192,8.96351832 4.16165713,8.54930476 C4.24419836,8.36210544 4.39376258,8.21254123 4.58096189,8.13 L5.63888889,7.66353144 C6.02176507,7.494711 6.25118707,7.09734044 6.20595177,6.68134973 L6.08096189,5.53192379 C6.03202421,5.08188535 6.35718061,4.67738528 6.80721904,4.62844759 C7.01060902,4.60633074 7.21491754,4.66107504 7.38,4.78192379 L8.31293713,5.46488116 C8.650578,5.71205144 9.109422,5.71205144 9.44706287,5.46488116 L10.38,4.78192379 C10.7452759,4.51452329 11.2581614,4.59386696 11.5255619,4.95914283 C11.6464107,5.12422529 11.701155,5.32853381 11.6790381,5.53192379 L11.5540482,6.68134973 C11.5088129,7.09734044 11.7382349,7.494711 12.1211111,7.66353144 L13.1790381,8.13 C13.5932517,8.31263794 13.7809808,8.79648168 13.5983429,9.21069524 C13.5158016,9.39789456 13.3662374,9.54745877 13.1790381,9.63 L12.1211111,10.0964686 C11.7382349,10.265289 11.5088129,10.6626596 11.5540482,11.0786503 L11.6790381,12.2280762 C11.7279758,12.6781146 11.4028194,13.0826147 10.952781,13.1315524 C10.749391,13.1536693 10.5450825,13.098925 10.38,12.9780762 L9.44706287,12.2951188 C9.109422,12.0479486 8.650578,12.0479486 8.31293713,12.2951188 Z" id="Star" fill="#081E41" transform="translate(8.880000, 8.880000) rotate(50.000000) translate(-8.880000, -8.880000) "></path>
                                            <circle id="Oval" fill="#3C4D69" cx="8.81748984" cy="9.01128184" r="1"></circle>
                                        </g>
                                    </g>
                                    <g id="Group-8" transform="translate(18.062510, 4.428718)">
                                        <circle id="Oval" fill="#0F58BA" cx="8.57748984" cy="8.77128184" r="7.92"></circle>
                                        <g id="Group-7">
                                            <path d="M8.31293713,12.2951188 L7.38,12.9780762 C7.01472413,13.2454767 6.50183859,13.166133 6.23443809,12.8008572 C6.11358934,12.6357747 6.05884504,12.4314662 6.08096189,12.2280762 L6.20595177,11.0786503 C6.25118707,10.6626596 6.02176507,10.265289 5.63888889,10.0964686 L4.58096189,9.63 C4.16674833,9.44736206 3.9790192,8.96351832 4.16165713,8.54930476 C4.24419836,8.36210544 4.39376258,8.21254123 4.58096189,8.13 L5.63888889,7.66353144 C6.02176507,7.494711 6.25118707,7.09734044 6.20595177,6.68134973 L6.08096189,5.53192379 C6.03202421,5.08188535 6.35718061,4.67738528 6.80721904,4.62844759 C7.01060902,4.60633074 7.21491754,4.66107504 7.38,4.78192379 L8.31293713,5.46488116 C8.650578,5.71205144 9.109422,5.71205144 9.44706287,5.46488116 L10.38,4.78192379 C10.7452759,4.51452329 11.2581614,4.59386696 11.5255619,4.95914283 C11.6464107,5.12422529 11.701155,5.32853381 11.6790381,5.53192379 L11.5540482,6.68134973 C11.5088129,7.09734044 11.7382349,7.494711 12.1211111,7.66353144 L13.1790381,8.13 C13.5932517,8.31263794 13.7809808,8.79648168 13.5983429,9.21069524 C13.5158016,9.39789456 13.3662374,9.54745877 13.1790381,9.63 L12.1211111,10.0964686 C11.7382349,10.265289 11.5088129,10.6626596 11.5540482,11.0786503 L11.6790381,12.2280762 C11.7279758,12.6781146 11.4028194,13.0826147 10.952781,13.1315524 C10.749391,13.1536693 10.5450825,13.098925 10.38,12.9780762 L9.44706287,12.2951188 C9.109422,12.0479486 8.650578,12.0479486 8.31293713,12.2951188 Z" id="Star" fill="#081E41" transform="translate(8.880000, 8.880000) rotate(50.000000) translate(-8.880000, -8.880000) "></path>
                                            <circle id="Oval" fill="#3C4D69" cx="8.81748984" cy="9.01128184" r="1"></circle>
                                        </g>
                                    </g>
                                </g>
                                <g id="Group-10" transform="translate(110.167772, 105.718211)">
                                    <rect id="Rectangle" fill="#081E41" x="0" y="0" width="108" height="26.88" rx="13.44"></rect>
                                    <rect id="Rectangle" fill="#3C4D69" x="12" y="0" width="108" height="26.88" rx="13.44"></rect>
                                    <rect id="Rectangle" fill="#081E41" x="15.36" y="2.88" width="101.28" height="21.12" rx="10.56"></rect>
                                    <rect id="Rectangle" fill="#3C4D69" x="40.8" y="10.08" width="52.32" height="6.72" rx="3.36"></rect>
                                    <g id="Group-9" transform="translate(97.262510, 4.428718)">
                                        <circle id="Oval" fill="#0F58BA" cx="8.57748984" cy="8.77128184" r="7.92"></circle>
                                        <g id="Group-7">
                                            <path d="M8.31293713,12.2951188 L7.38,12.9780762 C7.01472413,13.2454767 6.50183859,13.166133 6.23443809,12.8008572 C6.11358934,12.6357747 6.05884504,12.4314662 6.08096189,12.2280762 L6.20595177,11.0786503 C6.25118707,10.6626596 6.02176507,10.265289 5.63888889,10.0964686 L4.58096189,9.63 C4.16674833,9.44736206 3.9790192,8.96351832 4.16165713,8.54930476 C4.24419836,8.36210544 4.39376258,8.21254123 4.58096189,8.13 L5.63888889,7.66353144 C6.02176507,7.494711 6.25118707,7.09734044 6.20595177,6.68134973 L6.08096189,5.53192379 C6.03202421,5.08188535 6.35718061,4.67738528 6.80721904,4.62844759 C7.01060902,4.60633074 7.21491754,4.66107504 7.38,4.78192379 L8.31293713,5.46488116 C8.650578,5.71205144 9.109422,5.71205144 9.44706287,5.46488116 L10.38,4.78192379 C10.7452759,4.51452329 11.2581614,4.59386696 11.5255619,4.95914283 C11.6464107,5.12422529 11.701155,5.32853381 11.6790381,5.53192379 L11.5540482,6.68134973 C11.5088129,7.09734044 11.7382349,7.494711 12.1211111,7.66353144 L13.1790381,8.13 C13.5932517,8.31263794 13.7809808,8.79648168 13.5983429,9.21069524 C13.5158016,9.39789456 13.3662374,9.54745877 13.1790381,9.63 L12.1211111,10.0964686 C11.7382349,10.265289 11.5088129,10.6626596 11.5540482,11.0786503 L11.6790381,12.2280762 C11.7279758,12.6781146 11.4028194,13.0826147 10.952781,13.1315524 C10.749391,13.1536693 10.5450825,13.098925 10.38,12.9780762 L9.44706287,12.2951188 C9.109422,12.0479486 8.650578,12.0479486 8.31293713,12.2951188 Z" id="Star" fill="#081E41" transform="translate(8.880000, 8.880000) rotate(50.000000) translate(-8.880000, -8.880000) "></path>
                                            <circle id="Oval" fill="#3C4D69" cx="8.81748984" cy="9.01128184" r="1"></circle>
                                        </g>
                                    </g>
                                    <g id="Group-8" transform="translate(18.062510, 4.428718)">
                                        <circle id="Oval" fill="#0F58BA" cx="8.57748984" cy="8.77128184" r="7.92"></circle>
                                        <g id="Group-7">
                                            <path d="M8.31293713,12.2951188 L7.38,12.9780762 C7.01472413,13.2454767 6.50183859,13.166133 6.23443809,12.8008572 C6.11358934,12.6357747 6.05884504,12.4314662 6.08096189,12.2280762 L6.20595177,11.0786503 C6.25118707,10.6626596 6.02176507,10.265289 5.63888889,10.0964686 L4.58096189,9.63 C4.16674833,9.44736206 3.9790192,8.96351832 4.16165713,8.54930476 C4.24419836,8.36210544 4.39376258,8.21254123 4.58096189,8.13 L5.63888889,7.66353144 C6.02176507,7.494711 6.25118707,7.09734044 6.20595177,6.68134973 L6.08096189,5.53192379 C6.03202421,5.08188535 6.35718061,4.67738528 6.80721904,4.62844759 C7.01060902,4.60633074 7.21491754,4.66107504 7.38,4.78192379 L8.31293713,5.46488116 C8.650578,5.71205144 9.109422,5.71205144 9.44706287,5.46488116 L10.38,4.78192379 C10.7452759,4.51452329 11.2581614,4.59386696 11.5255619,4.95914283 C11.6464107,5.12422529 11.701155,5.32853381 11.6790381,5.53192379 L11.5540482,6.68134973 C11.5088129,7.09734044 11.7382349,7.494711 12.1211111,7.66353144 L13.1790381,8.13 C13.5932517,8.31263794 13.7809808,8.79648168 13.5983429,9.21069524 C13.5158016,9.39789456 13.3662374,9.54745877 13.1790381,9.63 L12.1211111,10.0964686 C11.7382349,10.265289 11.5088129,10.6626596 11.5540482,11.0786503 L11.6790381,12.2280762 C11.7279758,12.6781146 11.4028194,13.0826147 10.952781,13.1315524 C10.749391,13.1536693 10.5450825,13.098925 10.38,12.9780762 L9.44706287,12.2951188 C9.109422,12.0479486 8.650578,12.0479486 8.31293713,12.2951188 Z" id="Star" fill="#081E41" transform="translate(8.880000, 8.880000) rotate(50.000000) translate(-8.880000, -8.880000) "></path>
                                            <circle id="Oval" fill="#3C4D69" cx="8.81748984" cy="9.01128184" r="1"></circle>
                                        </g>
                                    </g>
                                </g>
                                <g id="Group-5" opacity="0.800000012" transform="translate(0.000000, 101.732930)">
                                    <path d="M51.4425738,4.95797362 L51.4667997,4.95797362 C53.4455387,4.95797362 55.0533571,6.55497229 55.0667177,8.53366619 L55.1187157,16.2345479 C55.13205,18.2093484 53.5419675,19.8210501 51.567167,19.8343843 C51.5591192,19.8344387 51.5510712,19.8344659 51.5430231,19.8344659 L51.5187972,19.8344659 C49.5400582,19.8344659 47.9322399,18.2374672 47.9188793,16.2587733 L47.8668812,8.55789156 C47.853547,6.58309108 49.4436295,4.97138942 51.41843,4.95805513 C51.4264778,4.95800079 51.4345258,4.95797362 51.4425738,4.95797362 Z" id="Rectangle" fill="#44A3FF" transform="translate(51.492798, 12.396220) rotate(14.000000) translate(-51.492798, -12.396220) "></path>
                                    <path d="M0.847771788,4.8 L15.9723469,14.7520431 L18.208774,13.1052813 L28.4329542,17.4652279 L45.9936937,14.9982065 C50.5698372,14.3553267 55.2293454,15.2667138 59.2260165,17.5864129 L66.7277718,21.9404901 L66.7277718,21.9404901 L83.1513627,21.1969407 L88.5599142,18.2819765 L87.7627241,19.2735842 C84.8471859,22.9001597 80.4448194,25.0095577 75.7916041,25.0095577 L29.599021,25.0095577 C26.1229762,25.0095577 22.7497158,23.8305135 20.0305347,21.6651172 L0,5.71397522 L0,5.71397522 L0.847771788,4.8 Z" id="Path-98" fill="#0B2043"></path>
                                    <path d="M1.31659352,6.11531829 C-0.36340648,3.84631324 -0.36340648,2.17567955 1.31659352,1.10341722 C2.99659352,0.0311548932 6.18358205,-0.17749763 10.8775591,0.477459651 L19.0043447,15.3061219" id="Path-99" stroke="#0B2043" stroke-width="1.44"></path>
                                    <circle id="Oval" fill="#0F58BA" cx="49.9524097" cy="19.6804559" r="1.92"></circle>
                                </g>
                                <path d="M196.303485,74.2394751 L236.455813,83.5221592 C236.972382,83.641583 237.294331,84.1571565 237.174907,84.673725 C237.168594,84.7010319 237.161089,84.7280494 237.152412,84.7546996 L235.82807,88.8222003 C235.055913,91.1937572 232.845161,92.7989375 230.351066,92.7989375 L137.678077,92.7989375 L137.678077,92.7989375 L119.710199,74.2394751 L136.304981,71.8111665 L175.458016,77.6380745 L196.303485,74.2394751 Z" id="Path-93" fill="#081E41"></path>
                                <path d="M94.8077718,56.3912783 L146.021331,67.2009743 C152.389391,68.5450869 158.964281,68.5801188 165.346302,67.3039401 L183.904413,63.5929739 C186.305239,63.1128935 188.777177,63.9765404 190.356677,65.8472684 L196.079243,72.6249631 C197.105369,73.8402863 196.951995,75.6573399 195.736671,76.6834658 C195.340038,77.0183525 194.860266,77.239812 194.348105,77.3244183 L169.739608,81.3896116 C162.260056,82.6251939 154.594203,82.071612 147.369783,79.7741971 L109.207772,67.6384165 L109.207772,67.6384165 L94.8077718,56.3912783 Z" id="Path-92" fill="#00B780"></path>
                                <rect id="Rectangle" fill="#081E41" x="66.9677718" y="47.6382114" width="28.32" height="22.56" rx="10.08"></rect>
                                <path d="M48.6855758,47.4630754 L75.0132999,38.0382114 L75.0132999,38.0382114 L77.9196068,54.1773762 L59.2912262,65.2932626 L47.3261776,53.8539904 C45.7932624,52.3884356 45.738656,49.9576954 47.2042108,48.4247801 C47.61657,47.9934679 48.1237726,47.6641911 48.6855758,47.4630754 Z" id="Path-94" fill="url(#linearGradient-8)"></path>
                                <path d="M38.6302924,85.4604354 C55.3562198,77.835569 33.1662888,68.7453498 59.0542719,57.3476581 C84.942255,45.9499665 114.270323,62.5932779 131.287772,76.4982114 C142.632737,85.768167 149.49457,91.5378251 151.873269,93.8071856 L133.623877,108.059316 L85.6209694,112.980432 L40.9566743,100.459111 C28.2551347,95.5432381 27.4796741,90.5436797 38.6302924,85.4604354 Z" id="Path-4" fill="#FFBC4C"></path>
                                <path d="M38.6477718,104.692797 C39.5253176,98.5369721 41.0416374,94.0773902 43.1967311,91.3140516 C45.3681111,88.5298299 48.7118156,93.1943349 52.0340177,83.3871821 C55.3562198,73.5800293 60.648992,81.0581872 63.8542719,77.0276581 C74.9849647,63.0311953 119.070323,82.2732779 136.087772,96.1782114 C147.432737,105.448167 153.783127,110.579009 155.13894,111.570737 C122.448407,113.597903 98.3424233,114.067801 82.8209899,112.980432 C67.2995565,111.893063 52.5751505,109.130518 38.6477718,104.692797 Z" id="Path-4" fill="#F9A750"></path>
                                <path d="M68.6652213,97.4872446 C70.0890738,95.6726696 72.0601626,95.2069895 74.5784875,96.0902041 C78.355975,97.4150261 83.0070704,111.831859 92.0548758,112.001878 C98.0867461,112.115224 93.5555935,113.034186 78.461418,114.758763 L67.3165814,110.995748 L68.6652213,97.4872446 Z" id="Path-8" fill="#081E41" opacity="0.100000001"></path>
                                <g id="Group-4" transform="translate(30.247772, 88.435617)">
                                    <mask id="mask-10" fill="white">
                                        <use xlink:href="#path-9"></use>
                                    </mask>
                                    <use id="Path-3" fill="#0F58BA" xlink:href="#path-9"></use>
                                    <polygon id="Path-95" fill="#44A3FF" mask="url(#mask-10)" points="86.440007 17.8805074 198.540982 3.26365379 95.0270312 1.03573599"></polygon>
                                </g>
                                <g id="Group-5" transform="translate(14.400000, 108.452930)">
                                    <path d="M51.5173758,1.13066592 L51.5614378,1.13066592 C53.5323719,1.13066592 55.1368941,2.71554969 55.1611648,4.68633435 L55.2739429,13.8439234 C55.2981269,15.8076648 53.7258049,17.4191968 51.7620635,17.4433808 C51.7474678,17.4435605 51.7328712,17.4436504 51.7182745,17.4436504 L51.6742125,17.4436504 C49.7032784,17.4436504 48.0987562,15.8587666 48.0744855,13.887982 L47.9617074,4.73039296 C47.9375234,2.76665151 49.5098454,1.15511954 51.4735869,1.13093555 C51.4881825,1.1307558 51.5027791,1.13066592 51.5173758,1.13066592 Z" id="Rectangle" fill="#44A3FF" transform="translate(51.617825, 9.287158) rotate(14.000000) translate(-51.617825, -9.287158) "></path>
                                    <path d="M0.847771788,2.4 L15.9723469,12.3520431 L18.208774,10.7052813 L28.4329542,15.0652279 L48.1291328,12.2982092 C51.321791,11.8496884 54.5726107,12.4855399 57.3609859,14.1039346 L66.7277718,19.5404901 L66.7277718,19.5404901 L83.1513627,18.7969407 L88.5599142,15.8819765 L87.7627241,16.8735842 C84.8471859,20.5001597 80.4448194,22.6095577 75.7916041,22.6095577 L29.599021,22.6095577 C26.1229762,22.6095577 22.7497158,21.4305135 20.0305347,19.2651172 L5.68434189e-13,3.31397522 L5.68434189e-13,3.31397522 L0.847771788,2.4 Z" id="Path-98" fill="#0B2043"></path>
                                    <circle id="Oval" fill="#0F58BA" cx="50.5084686" cy="16.8910993" r="1.92"></circle>
                                </g>
                                <path d="M74.5332999,38.5182114 L86.5568121,7.63188278 C86.7491477,7.13780584 87.305595,6.89319614 87.799672,7.08553173 C88.2140517,7.24684258 88.4634175,7.67161169 88.4023095,8.11206328 L82.0305359,54.0382869 L82.0305359,54.0382869 L77.4396068,54.0382869 L74.5332999,38.5182114 Z" id="Path-96" fill="#FFFFFF"></path>
                                <path d="M46.8409546,53.5582869 L60.5000376,48.8101786 C61.0008362,48.6360932 61.5479378,48.9009467 61.7220232,49.4017453 C61.8344248,49.7250959 61.7661353,50.0838352 61.5427939,50.3432737 L53.1254116,60.1211033 L53.1254116,60.1211033 L46.8409546,53.5582869 Z" id="Path-97" fill="#FFFFFF"></path>
                                <path d="M15.2477718,111.766905 C13.5677718,109.4979 13.5677718,107.827267 15.2477718,106.755004 C16.9277718,105.682742 20.1147603,105.474089 24.8087374,106.129047 L32.9355229,120.957709" id="Path-99" stroke="#0B2043" stroke-width="1.44"></path>
                                <path d="M88.0605204,51.665737 L98.7959745,45.8518755 C99.7146828,45.3543424 100.812556,45.3124837 101.766481,45.7386186 L104.950306,47.1608884 L104.950306,47.1608884" id="Path-100" stroke="#3C4D69" stroke-width="2.88" stroke-linecap="round"></path>
                                <circle id="Oval" fill="#3C4D69" cx="106.416029" cy="47.7958513" r="2.88"></circle>
                                <path d="M72.5916281,83.2224091 C76.8589769,80.6049143 82.0920177,80.0750539 88.2907505,81.6328281 C94.4894834,83.1906023 103.76626,86.7016858 116.121079,92.1660787" id="Path-7" stroke="#FFBC4C" stroke-width="1.92" stroke-linecap="round"></path>
                                <line x1="204.159237" y1="80.8699769" x2="239.383527" y2="88.7725823" id="Path-9" stroke="#44A3FF" stroke-width="1.44" stroke-linecap="round"></line>
                            </g>
                        </g>
                    </g>
                    <g id="Group-25" stroke="none" stroke-width="1" fill="none" fill-rule="evenodd" transform="translate(633.000000, 927.000000)">
                        <path d="M199.366571,330.13343 C143.607489,305.396526 212.951429,316.42457 407.398392,363.217564 C437.402327,371.765727 426.736883,380.496514 375.402059,389.409926 C298.399823,402.780044 53.5677732,386.411355 88.3642393,368.325645 C123.160705,350.239935 283.005194,367.238786 199.366571,330.13343 Z" id="Path" fill="#ACE1FE" transform="translate(254.500000, 355.801430) scale(-1, 1) translate(-254.500000, -355.801430) "></path>
                        <g id="Group-8" transform="translate(220.161797, 213.500000) rotate(-130.000000) translate(-220.161797, -213.500000) translate(94.161797, 32.000000)">
                            <g id="Group-4" transform="translate(0.000000, -0.000000)">
                                <g id="Group-2" transform="translate(126.116964, 216.115995) rotate(-16.000000) translate(-126.116964, -216.115995) translate(31.616964, 90.615995)">
                                    <path d="M87.6937121,17.8060691 C80.3109598,41.5984436 78.0352492,64.1959349 80.8665805,85.598543 C84.939212,116.384392 98.6243508,149.639073 121.921997,185.362588 C113.143602,203.349203 110.040996,213.023095 112.61418,214.384265 C115.187363,215.745434 123.990967,206.071542 139.024992,185.362588 C127.622995,155.030396 121.921997,134.921493 121.921997,125.035877 C121.921997,115.150261 117.733716,97.7707289 109.357155,72.8972806 C127.468494,44.6276874 138.534197,28.0880498 142.554263,23.278368 C144.786468,20.607717 90.9304271,7.37511722 87.6937121,17.8060691 Z" id="Path-20" fill="#081E41" transform="translate(111.155538, 114.183804) rotate(-30.000000) translate(-111.155538, -114.183804) "></path>
                                    <path d="M120.582767,130.478533 L149.959364,175.368972 C141.180969,193.355586 138.078363,203.029479 140.651547,204.390648 C143.22473,205.751818 152.028334,196.077926 167.062359,175.368972 L153.774227,118.494295 L120.582767,130.478533 Z" id="Path-20" fill="#0F58BA" transform="translate(143.822563, 161.505434) rotate(-30.000000) translate(-143.822563, -161.505434) "></path>
                                    <path d="M32.3184927,0.0726791478 C7.64357416,49.9642889 -2.65756938,90.3030181 1.41506211,121.088867 C5.4876936,151.874716 19.1728324,185.129397 42.4704785,220.852912 C33.6920836,238.839526 30.5894779,248.513419 33.1626613,249.874588 C35.7358447,251.235758 44.5394489,241.561866 59.5734739,220.852912 C48.171477,190.52072 42.4704785,170.411817 42.4704785,160.526201 C42.4704785,150.640585 38.282198,133.261053 29.9056369,108.387604 C44.8762996,78.9545412 54.3716643,61.8331686 58.391731,57.0234868 C60.6239359,54.3528357 82.8202961,47.8262299 89.7255415,39.3161009 C93.4126654,34.7720336 96.1366992,26.9767137 97.8976431,15.9301412 L32.3184927,0.0726791478 Z" id="Path-20" fill="#0F58BA"></path>
                                    <path d="M14.4971327,179.380721 L42.4704785,220.852912 C33.6920836,238.839526 30.5894779,248.513419 33.1626613,249.874588 C35.7358447,251.235758 44.5394489,241.561866 59.5734739,220.852912 L46.0138759,169.406979 L14.4971327,179.380721 Z" id="Path-20" fill="#081E41"></path>
                                    <path d="M41.3641241,10.7137778 C21.2976873,57.2251971 11.3005138,89.3193478 11.3726035,106.99623 C11.4446933,124.673112 16.1834176,147.778155 25.5887766,176.31136" id="Path-14" stroke="#FFBC4C"></path>
                                </g>
                                <g id="Group-2" transform="translate(16.875000, 0.075000)">
                                    <mask id="mask-12" fill="white">
                                        <use xlink:href="#path-11"></use>
                                    </mask>
                                    <use id="Path-17" fill="#FFBC4C" xlink:href="#path-11"></use>
                                    <path d="M53.4170365,-20.6345521 C55.0369261,9.77382986 56.7643893,28.3054656 58.5994261,34.9603552 C61.3519812,44.9426897 58.9619628,63.79041 69.4514296,76.4739576 C79.9408964,89.1575052 52.5907638,113.160519 46.7807455,124.791034 C42.9074,132.54471 57.6619416,135.146334 91.0443705,132.595905 L108.579205,98.5300234 L82.5918155,29.8397855 L53.4170365,-20.6345521 Z" id="Path-27" fill="#F9A750" mask="url(#mask-12)"></path>
                                </g>
                            </g>
                        </g>
                        <g id="Group-20" transform="translate(315.583709, 244.697704)" stroke="#0A357B" stroke-linecap="round" stroke-width="2">
                            <path d="M13.3017196,24.448671 C14.380151,16.5698831 18.0468177,12.2365498 24.3017196,11.448671" id="Path-83" transform="translate(18.801720, 17.948671) rotate(-181.000000) translate(-18.801720, -17.948671) "></path>
                            <path d="M2,19 C3.66666667,8.6969697 9.33333333,3.03030303 19,2" id="Path-83" transform="translate(10.500000, 10.500000) rotate(-190.000000) translate(-10.500000, -10.500000) "></path>
                        </g>
                        <path d="M317.583709,263.697704 C319.250375,253.394674 324.917042,247.728007 334.583709,246.697704" id="Path-83" stroke="#0A357B" stroke-width="2" stroke-linecap="round" transform="translate(326.083709, 255.197704) rotate(-190.000000) translate(-326.083709, -255.197704) "></path>
                        <path d="M187.583709,193.697704 C189.250375,183.394674 194.917042,177.728007 204.583709,176.697704" id="Path-83" stroke="#0A357B" stroke-width="2" stroke-linecap="round" transform="translate(196.083709, 185.197704) rotate(-50.000000) translate(-196.083709, -185.197704) "></path>
                        <path d="M178.449561,188.687488 C179.489561,185.529593 180.876227,183.073453 182.609561,181.319067 C184.342894,179.564681 187.289561,178.687488 191.449561,178.687488" id="Path-84" stroke="#0A357B" stroke-width="2" stroke-linecap="round" transform="translate(184.949561, 183.687488) rotate(-50.000000) translate(-184.949561, -183.687488) "></path>
                        <path d="M329.471282,408.30143 C338.013442,389.18044 353.136774,388.555816 373.855095,388.420669 L382.993366,388.418698 L386.224865,388.410994 C408.787793,388.335958 422.638298,387.816795 439.009408,386.078835 C481.135066,381.606769 511.237121,370.164847 526.163542,347.892462 C530.935193,340.772467 533.815964,334.603857 534.70578,329.158164 C535.822042,322.326615 533.77856,316.308782 528.292336,312.196949 C519.608696,305.688707 508.494673,307.546931 484.316782,307.546931 C481.623935,312.922881 474.85204,316.371777 464.001098,317.89362 C453.150156,319.415462 454.94733,321.275085 469.392621,323.472489 C478.608397,321.578919 502.971467,323.43117 508.494673,323.472489 C510.94143,323.490793 512.920002,323.695602 514.404986,324.046562 C515.375544,324.275943 515.99069,324.52714 516.315054,324.740909 L516.415895,324.810169 L516.422322,324.838979 C516.538158,325.180101 516.571701,325.817509 516.41324,326.787292 C515.931693,329.734371 513.92422,334.032981 510.290744,339.454654 C499.181897,356.030666 474.295595,365.613592 437.927088,369.611759 L436.821499,369.731207 C420.144824,371.501606 405.991642,371.944171 380.947063,371.957364 L374.487347,371.955271 C341.719608,371.955271 321.137191,373.745453 305,402.813646 L329.471282,408.30143 Z" id="Path-104" fill="#D5F1FB"></path>
                        <path d="M328.8329,410.30143 C337.152222,389.47659 351.881032,388.796306 372.058875,388.649116 L380.958756,388.646969 L384.105956,388.638579 C406.080286,388.556857 419.569473,387.991431 435.51351,386.098604 C476.540239,381.228036 505.857022,368.766537 520.394058,344.509484 C525.041231,336.755034 527.846852,330.036747 528.713455,324.105794 C529.800597,316.665493 527.810424,310.111417 522.467319,305.633184 C514.010208,298.544999 503.186116,300.568808 479.638953,300.568808 C477.016354,306.423803 470.421117,310.180026 459.853243,311.837478 C449.285369,313.49493 451.035661,315.520262 465.104118,317.913474 C474.079482,315.85117 497.806994,317.868474 503.186116,317.913474 C505.569045,317.933409 507.496002,318.156468 508.942247,318.538702 C509.887486,318.788523 510.486585,319.062104 510.802488,319.294922 L510.900698,319.370354 L510.906957,319.401731 C511.019771,319.77325 511.052439,320.467456 510.898112,321.523656 C510.429127,324.733346 508.474023,329.415 504.935333,335.319793 C494.116282,353.372875 469.879188,363.809726 434.459424,368.164164 L433.382678,368.294257 C417.141046,370.222414 403.357078,370.704415 378.965836,370.718784 L372.674634,370.716505 C340.761705,370.716505 320.716221,372.666208 305,404.324635 L328.8329,410.30143 Z" id="Path-104" fill="#00B780"></path>
                        <path d="M243,410.511486 C261.536534,384.974727 279.123086,374.622498 295.759656,379.454797 C320.71451,386.703246 324.611159,394.53196 333.48275,389.021097 C339.397144,385.347188 352.236228,390.464558 372,404.373206 L290.264801,415.30143 L243,410.511486 Z" id="Path-101" fill="#FFFFFF"></path>
                        <path d="M511,319.30143 C508.54083,313.98593 502.831958,310.970028 497.055136,311.93459 L467,316.952932 L467,316.952932 L511,319.30143 Z" id="Path-105" fill="#081E41"></path>
                    </g>
                    <g id="Group-2" stroke="none" stroke-width="1" fill="none" fill-rule="evenodd" transform="translate(621.000000, 1307.000000)"></g>
                    <circle id="Oval-15" stroke="none" fill="#568BD4" fill-rule="nonzero" opacity="0.100000001" cx="599" cy="1193" r="5"></circle>
                    <circle id="Oval-15" stroke="none" fill="#568BD4" fill-rule="nonzero" opacity="0.100000001" cx="427" cy="1260" r="4"></circle>
                    <circle id="Oval-15" stroke="none" fill="#568BD4" fill-rule="nonzero" opacity="0.100000001" cx="332.5" cy="1164.5" r="6.5"></circle>
                    <g id="Group-179" stroke="none" stroke-width="1" fill="none" fill-rule="evenodd" transform="translate(1009.000000, 953.000000)">
                        <g id="Group-109" transform="translate(255.000000, 127.000000) scale(-1, 1) translate(-255.000000, -127.000000) ">
                            <line x1="499.5" y1="250.5" x2="510" y2="250.5" id="Path-44" stroke="#BDD0E5" stroke-width="7" opacity="0.300000012" stroke-linecap="round"></line>
                            <circle id="Oval-15" fill="#568BD4" fill-rule="nonzero" opacity="0.100000001" cx="343" cy="12" r="6"></circle>
                            <circle id="Oval-15" fill="#568BD4" fill-rule="nonzero" opacity="0.100000001" cx="164" cy="4" r="4"></circle>
                            <circle id="Oval-15" fill="#568BD4" fill-rule="nonzero" opacity="0.100000001" cx="4" cy="4" r="4"></circle>
                        </g>
                    </g>
                    <path d="M180,1203 L619.399107,1203 C621.608246,1203 623.399107,1204.79086 623.399107,1207 C623.399107,1209.02397 621.887278,1210.729 619.877854,1210.97125 L180,1264 L180,1264 L180,1203 Z" id="Path" stroke="none" fill="#D5F1FB" fill-rule="evenodd"></path>
                    <g id="Group-19" stroke="none" stroke-width="1" fill="none" fill-rule="evenodd" transform="translate(495.000000, 1178.000000)">
                        <path d="M18.7038578,21.8935386 C26.3713138,15.7595738 33.118675,11.7724967 38.9459416,9.9323073 C47.6868414,7.17202315 70.6892093,5.33183371 72.0693514,11.3124494 C73.4494935,17.293065 75.2896829,35.6949594 69.7691146,42.1356224 C66.0887357,46.4293977 49.0669835,39.6820365 18.7038578,21.8935386 Z" id="Path" fill="#44A3FF" transform="translate(46.106885, 25.365130) rotate(17.000000) translate(-46.106885, -25.365130) "></path>
                        <path d="M52.9439149,41.5 C58.0347921,40.1047616 61.6501922,37.1726186 63.7901153,32.7035712 C65.9300384,28.2345237 68.0260293,25.0729117 70.0780878,23.218735" id="Path-16" stroke="#0F58BA"></path>
                        <circle id="Oval" fill="#FFBC4C" cx="75" cy="18" r="8"></circle>
                        <path d="M15.2683623,15.883815 C19.4555582,14.0149808 24.215444,18.660954 33.1625257,25.1409452 C42.1096075,31.6209363 59.5564168,38.1009275 64.9246659,39.489497 C67.6354557,40.1906792 63.7470019,43.9064602 62.8233637,47.0019389 C61.9178966,50.0365188 64.016625,52.4540776 62.6878954,52.9123359 C60.0037709,53.8380489 51.0566892,54.3009054 33.1625257,46.8952012 C15.2683623,39.489497 4.53186423,33.9352189 4.53186423,30.6952233 C4.53186423,27.4552277 11.0811664,17.7526491 15.2683623,15.883815 Z" id="Path-2" fill="#0F58BA" transform="translate(35.200858, 34.443695) rotate(17.000000) translate(-35.200858, -34.443695) "></path>
                    </g>
                    <path d="M1385.70306,1344.34099 L1615.38116,1399.13428 L1615.38116,1399.13428 C1732.05987,1443.67995 1710.04527,1469.11872 1549.33734,1475.4506 C1388.62942,1481.78248 1096.8503,1468.70715 674,1436.22461 L1382.81652,1344.18921 C1383.77994,1344.06412 1384.75808,1344.11555 1385.70306,1344.34099 Z" id="Path" stroke="none" fill="#ACE1FE" fill-rule="evenodd"></path>
                    <path d="M616,1301.07028 C643.683994,1283 665.065395,1278.48243 680.144203,1287.51757 C702.762414,1301.07028 700.146158,1318.09032 712.287345,1312.54225 C720.381469,1308.84354 737.952354,1313.99546 765,1327.998 L653.141563,1339 L616,1301.07028 Z" id="Path-101" stroke="none" fill="#FFFFFF" fill-rule="evenodd"></path>
                    <path d="M487,1226.38977 C503.536077,1218 516.307518,1215.90256 525.314322,1220.09744 C538.824529,1226.38977 537.261799,1234.29193 544.513917,1231.71605 C549.348663,1229.99879 559.844024,1232.39075 576,1238.89193 L509.185229,1244 L487,1226.38977 Z" id="Path-101" stroke="none" fill="#FFFFFF" fill-rule="evenodd"></path>
                    <path d="M1037,955.319365 C1100.22257,940.887996 1146.48364,909.878541 1175.78323,862.290999 C1219.73261,790.909686 1310.84322,799.070271 1354.17554,775.459875 C1397.50785,751.84948 1420.82598,634.935784 1459.62756,577.689523 C1498.42915,520.443261 1556.36518,499.462956 1591.93994,489.472334 C1615.65644,482.81192 1627.51469,472.987808 1627.51469,460 L1628,773.205991 C1597.04843,837.749264 1555.21338,870.0209 1502.49483,870.0209 C1423.41702,870.0209 1375.2987,862.698876 1354.17554,892.454671 C1333.05238,922.210465 1255.63259,889.709874 1233.48478,912.8815 C1218.71958,928.32925 1173.00248,944.36875 1096.3335,961 L1078.16918,957.101431 L1037,955.319365 Z" id="Path-103" stroke="none" fill="url(#linearGradient-13)" fill-rule="evenodd" opacity="0.900000036"></path>
                    <circle id="Oval" stroke="none" fill="#DEF3FF" fill-rule="evenodd" opacity="0.400000006" cx="1533.5" cy="815.5" r="4.5"></circle>
                    <circle id="Oval" stroke="none" fill="#DEF3FF" fill-rule="evenodd" opacity="0.5" cx="1442.5" cy="764.5" r="3.5"></circle>
                    <circle id="Oval" stroke="none" fill="#DEF3FF" fill-rule="evenodd" opacity="0.200000003" cx="1281.5" cy="854.5" r="3.5"></circle>
                    <circle id="Oval" stroke="none" fill="#DEF3FF" fill-rule="evenodd" opacity="0.200000003" cx="1512.5" cy="624.5" r="3.5"></circle>
                    <g id="Group-17" stroke="none" stroke-width="1" fill="none" fill-rule="evenodd" transform="translate(265.000000, 1207.000000)">
                        <path d="M68.4,124.8 C106.176277,124.8 136.8,123.367311 136.8,121.6 C136.8,119.832689 106.176277,118.4 68.4,118.4 C30.6237231,118.4 8.52651283e-14,119.832689 8.52651283e-14,121.6 C8.52651283e-14,123.367311 30.6237231,124.8 68.4,124.8 Z" id="Oval" fill="#D5F1FB"></path>
                        <path d="M1183.4,14.8 C1221.17628,14.8 1251.8,13.3673112 1251.8,11.6 C1251.8,9.8326888 1221.17628,8.4 1183.4,8.4 C1145.62372,8.4 1115,9.8326888 1115,11.6 C1115,13.3673112 1145.62372,14.8 1183.4,14.8 Z" id="Oval-Copy" fill="#D5F1FB"></path>
                        <polygon id="Path-102" fill="#0C2144" transform="translate(74.000000, 60.350492) scale(-1, 1) translate(-74.000000, -60.350492) " points="105.38252 120.700983 76.7098783 63.2541691 26.4444264 52.9731976 12 23.1009616 31.1150669 49.4226196 81.2578947 56.5510812 105.38252 103.274154 112.366122 -5.35222088e-14 112.987668 38.9818068 135.999611 26.5753011 112.987668 44.7919936 112.366122 120.700983"></polygon>
                    </g>
                    <polygon id="Path-102" stroke="none" fill="#0C2144" fill-rule="evenodd" transform="translate(1442.500000, 1177.500000) scale(-1, 1) translate(-1442.500000, -1177.500000) " points="1439 1215 1445.608 1140 1446 1164.22213 1446 1167.83241 1445.608 1215"></polygon>
                    <polygon id="Path-102" stroke="none" fill="#0C2144" fill-rule="evenodd" transform="translate(1457.000000, 1201.000000) scale(-1, 1) translate(-1457.000000, -1201.000000) " points="1455.35651 1216 1453 1186 1461 1215.24928"></polygon>
                    <polygon id="Path-102" stroke="none" fill="#0C2144" fill-rule="evenodd" points="1437.35651 1216 1435 1186 1443 1215.24928"></polygon>
                    <circle id="Oval" stroke="none" fill="#DEF3FF" fill-rule="evenodd" opacity="0.200000003" cx="1547" cy="689" r="8"></circle>
                </g>
            </g>
        </g>
    </g>
</svg>